# xmcd CD database file
#
# Track frame offsets:
#	150
#	3156
#	30183
#	61534
#	91310
#	118161
#	141256
#	172607
#	211156
#	250767
#	279417
#
# Disc length: 4174 seconds
#
# Revision: 0
# Processed by: cddbd v1.5.2PL0 Copyright (c) Steve Scherf et al.
# Submitted via: CDex 1.51
#
DISCID=7d104c0b
DTITLE=Dave Matthews Band - Before These Crowded Streets
DYEAR=1998
DGENRE=Blues
TTITLE0=Pantala Naga Pampa
TTITLE1=Rapunzel
TTITLE2=The last stop
TTITLE3=Don't drink the water
TTITLE4=Stay (wasting time)
TTITLE5=Halloween
TTITLE6=The stone
TTITLE7=Crush
TTITLE8=The dreaming tree
TTITLE9=Pig
TTITLE10=Spoon
EXTD=YEAR: 1998
EXTT0=
EXTT1=
EXTT2=
EXTT3=
EXTT4=
EXTT5=
EXTT6=
EXTT7=
EXTT8=
EXTT9=
EXTT10=
PLAYORDER=
